<svg width="65" height="66" viewBox="0 0 65 66" fill="none" xmlns="http://www.w3.org/2000/svg">
<circle cx="32.5" cy="32.9683" r="32.5" fill="#0156FF"/>
<g clip-path="url(#clip0_789_1811)">
<path d="M35.82 45.1165L33 47.9365L30.18 45.1165C24.6375 43.8365 20.5 38.8665 20.5 32.9365C20.5 26.0365 26.1 20.4365 33 20.4365C39.9 20.4365 45.5 26.0365 45.5 32.9365C45.5 38.8665 41.3625 43.8365 35.82 45.1165ZM25.5287 37.2065C27.3637 39.944 30.1187 41.6865 33.2 41.6865C36.28 41.6865 39.0362 39.9453 40.87 37.2065C38.7897 35.2623 36.0474 34.1825 33.2 34.1865C30.3521 34.1822 27.6094 35.262 25.5287 37.2065ZM33 31.6865C33.9946 31.6865 34.9484 31.2914 35.6517 30.5882C36.3549 29.8849 36.75 28.9311 36.75 27.9365C36.75 26.942 36.3549 25.9881 35.6517 25.2849C34.9484 24.5816 33.9946 24.1865 33 24.1865C32.0054 24.1865 31.0516 24.5816 30.3483 25.2849C29.6451 25.9881 29.25 26.942 29.25 27.9365C29.25 28.9311 29.6451 29.8849 30.3483 30.5882C31.0516 31.2914 32.0054 31.6865 33 31.6865Z" fill="white"/>
</g>
<defs>
<clipPath id="clip0_789_1811">
<rect width="30" height="30" fill="white" transform="translate(18 17.9365)"/>
</clipPath>
</defs>
</svg>
