<svg width="65" height="66" viewBox="0 0 65 66" fill="none" xmlns="http://www.w3.org/2000/svg">
<circle cx="32.5" cy="32.9683" r="32.5" fill="#0156FF"/>
<g clip-path="url(#clip0_789_1835)">
<path d="M45.2047 21.4629C45.1293 21.2751 44.9844 21.1236 44.8001 21.0399C44.6158 20.9562 44.4063 20.9468 44.2152 21.0136C44.0242 21.0804 43.8662 21.2183 43.7742 21.3986C43.6823 21.5789 43.6633 21.7877 43.7214 21.9816C44.9291 25.4526 42.5319 28.0448 40.7041 29.4332L39.9657 28.375C39.7174 28.0201 39.1623 27.725 38.7307 27.7198L34.5863 27.738C34.08 27.7533 33.5873 27.9051 33.1602 28.1774L20.948 36.7405C20.6639 36.9404 20.4707 37.2447 20.4105 37.5868C20.3503 37.9289 20.4281 38.2809 20.6269 38.5657L26.1766 46.5061C26.5926 47.0976 27.2569 47.0261 27.8497 46.6127L40.0619 38.0483C40.4129 37.8 40.8185 37.2644 40.9615 36.8549L42.2589 32.7664C42.4019 32.3582 42.3148 31.7355 42.0665 31.3806L41.6167 30.7358C44.0711 28.8547 46.6191 25.5306 45.2047 21.4629ZM39.5224 33.6283C39.2974 33.7858 39.0436 33.8974 38.7755 33.9568C38.5074 34.0161 38.2302 34.0221 37.9597 33.9743C37.6893 33.9265 37.431 33.8258 37.1994 33.6782C36.9679 33.5305 36.7678 33.3386 36.6104 33.1135C36.2918 32.6581 36.1669 32.0948 36.2632 31.5474C36.3595 31 36.669 30.5131 37.1239 30.1937C37.4805 29.9439 37.9063 29.8117 38.3416 29.8157C38.777 29.8196 39.2003 29.9595 39.5523 30.2158C39.1987 30.429 38.9556 30.5538 38.9101 30.5733C38.749 30.6502 38.6187 30.7795 38.5406 30.94C38.4626 31.1006 38.4414 31.2829 38.4805 31.4571C38.5196 31.6313 38.6168 31.787 38.756 31.8988C38.8952 32.0105 39.0683 32.0717 39.2468 32.0722C39.3586 32.0722 39.473 32.0462 39.5809 31.9955C39.8331 31.8759 40.1035 31.7342 40.3856 31.5665C40.4505 31.9566 40.4039 32.3571 40.2512 32.7218C40.0985 33.0866 39.8459 33.4008 39.5224 33.6283Z" fill="white"/>
</g>
<defs>
<clipPath id="clip0_789_1835">
<rect width="26" height="26" fill="white" transform="translate(20 20.9365)"/>
</clipPath>
</defs>
</svg>
