<svg width="65" height="66" viewBox="0 0 65 66" fill="none" xmlns="http://www.w3.org/2000/svg">
<circle cx="32.5" cy="32.9683" r="32.5" fill="#0156FF"/>
<path d="M32.9111 20.8606C26.1059 20.8606 20.5693 26.3971 20.5693 33.2024V38.3156C20.5693 39.5794 21.6764 40.6074 23.0377 40.6074H24.2719C24.5992 40.6074 24.9131 40.4774 25.1446 40.246C25.376 40.0145 25.506 39.7006 25.506 39.3733V33.0259C25.506 32.6986 25.376 32.3846 25.1446 32.1532C24.9131 31.9217 24.5992 31.7917 24.2719 31.7917H23.1512C23.8374 27.0154 27.9472 23.329 32.9111 23.329C37.875 23.329 41.9848 27.0154 42.671 31.7917H41.5504C41.223 31.7917 40.9091 31.9217 40.6777 32.1532C40.4462 32.3846 40.3162 32.6986 40.3162 33.0259V40.6074C40.3162 41.9687 39.2091 43.0758 37.8478 43.0758H35.3795V41.8416H30.4428V45.5441H37.8478C40.5704 45.5441 42.7845 43.33 42.7845 40.6074C44.1458 40.6074 45.2529 39.5794 45.2529 38.3156V33.2024C45.2529 26.3971 39.7164 20.8606 32.9111 20.8606Z" fill="white"/>
</svg>
